<svg width="48" height="48" viewBox="0 0 48 48" fill="none" xmlns="http://www.w3.org/2000/svg">
<path d="M35.9452 31.6707L24.1739 41.478L12.4947 31.7846L12.5495 37.919L22.0355 45.7749C22.5879 46.2633 23.3151 46.5049 24.219 46.4999C24.3429 46.4999 24.4611 46.482 24.5812 46.47C24.8617 46.442 25.1354 46.3951 25.3948 46.3062C25.7637 46.1794 26.0807 46.0056 26.3449 45.7859L36 37.7392L35.9452 31.6707Z" fill="white"/>
<path d="M25.8482 2.21405C25.5841 1.99435 25.2671 1.8216 24.8982 1.69378C24.6398 1.6049 24.366 1.55797 24.0845 1.53001C23.9645 1.51803 23.8463 1.50105 23.7224 1.50005C22.8194 1.49605 22.0913 1.73772 21.5399 2.22603L12.0548 10.082L12 16.2164L23.6782 6.522L35.4505 16.3282L35.5043 10.2588L25.8482 2.21405Z" fill="white"/>
<path d="M17.78 16.6428L14.7205 19.1952L29.6475 31.6707L32.805 29.0474L17.78 16.6428Z" fill="white"/>
</svg>
