<svg width="0" height="0" style="position:absolute"><symbol viewBox="0 0 24 25" id="arrow" xmlns="http://www.w3.org/2000/svg"><path d="M15.667 5.5c0 .742.672 1.85 1.352 2.78.874 1.2 1.92 2.247 3.117 3.046.899.6 1.988 1.174 2.864 1.174m0 0c-.876 0-1.966.575-2.864 1.174-1.198.8-2.243 1.847-3.117 3.045-.68.931-1.352 2.041-1.352 2.781m7.333-7H1" stroke="currentColor" stroke-width="2"/></symbol><symbol viewBox="0 0 24 24" id="arrow-left" xmlns="http://www.w3.org/2000/svg"><path fill-rule="evenodd" clip-rule="evenodd" d="M9.534 17.494a.618.618 0 0 0 .441.184.605.605 0 0 0 .442-.184.629.629 0 0 0 0-.883l-3.992-3.992h12.659a.63.63 0 0 0 .625-.625.63.63 0 0 0-.625-.625H6.425l3.992-3.991a.629.629 0 0 0 0-.884.629.629 0 0 0-.883 0l-5.059 5.059a.629.629 0 0 0 0 .883l5.059 5.058Z"/></symbol><symbol viewBox="0 0 24 24" id="arrow-right" xmlns="http://www.w3.org/2000/svg"><path fill-rule="evenodd" clip-rule="evenodd" d="M13.583 17.494a.618.618 0 0 0 .441.184.618.618 0 0 0 .442-.184l5.058-5.058a.629.629 0 0 0 0-.883l-5.058-5.059a.629.629 0 0 0-.883 0 .629.629 0 0 0 0 .884l3.991 3.991H4.916a.63.63 0 0 0-.625.625.63.63 0 0 0 .625.625h12.658l-3.991 3.992a.629.629 0 0 0 0 .883Z"/></symbol><symbol viewBox="0 0 24 25" id="burger" xmlns="http://www.w3.org/2000/svg"><path fill-rule="evenodd" clip-rule="evenodd" d="M19.5 9.163h-15a.63.63 0 0 1-.625-.625.63.63 0 0 1 .625-.625h15a.63.63 0 0 1 .625.625.63.63 0 0 1-.625.625Zm0 4.167h-15a.63.63 0 0 1-.625-.625.63.63 0 0 1 .625-.625h15a.63.63 0 0 1 .625.625.63.63 0 0 1-.625.625Zm-15 4.167h15a.63.63 0 0 0 .625-.625.63.63 0 0 0-.625-.625h-15a.63.63 0 0 0-.625.625.63.63 0 0 0 .625.625Z"/></symbol><symbol viewBox="0 0 20 20" id="camera" xmlns="http://www.w3.org/2000/svg"><path d="M14 5.994c-.406 0-.78-.233-.966-.593l-.48-.967c-.307-.607-1.107-1.107-1.787-1.107H9.24c-.686 0-1.486.5-1.793 1.107l-.48.967c-.187.36-.56.593-.967.593a2.502 2.502 0 0 0-2.5 2.66l.347 5.507c.08 1.373.82 2.5 2.66 2.5h6.987c1.84 0 2.573-1.127 2.66-2.5l.346-5.507a2.502 2.502 0 0 0-2.5-2.66Zm-5 .833h2c.274 0 .5.227.5.5 0 .274-.226.5-.5.5H9a.504.504 0 0 1-.5-.5c0-.273.227-.5.5-.5Zm1 7.247a2.255 2.255 0 0 1-2.253-2.253A2.25 2.25 0 0 1 10 9.567a2.25 2.25 0 0 1 2.254 2.254A2.255 2.255 0 0 1 10 14.074Z"/></symbol><symbol viewBox="0 0 24 25" id="clock" xmlns="http://www.w3.org/2000/svg"><path d="M12.001 2.858c-5.51 0-10 4.49-10 10s4.49 10 10 10 10-4.49 10-10-4.49-10-10-10Zm4.35 13.57a.746.746 0 0 1-1.03.26l-3.1-1.85c-.77-.46-1.34-1.47-1.34-2.36v-4.1c0-.41.34-.75.75-.75s.75.34.75.75v4.1c0 .36.3.89.61 1.07l3.1 1.85c.36.21.48.67.26 1.03Z" fill-opacity=".4"/></symbol><symbol viewBox="0 0 24 25" id="cross" xmlns="http://www.w3.org/2000/svg"><path d="M19.28 18.6a.751.751 0 0 1-1.06 1.061L12 13.441l-6.22 6.22A.75.75 0 0 1 4.72 18.6l6.22-6.22-6.22-6.219A.75.75 0 0 1 5.78 5.1L12 11.32l6.22-6.22a.75.75 0 1 1 1.06 1.061l-6.22 6.22 6.22 6.219Z" fill-opacity=".4"/></symbol><symbol viewBox="0 0 24 24" id="default" xmlns="http://www.w3.org/2000/svg"><path fill-rule="evenodd" clip-rule="evenodd" d="M10.625 6.172a2.817 2.817 0 1 1-5.633 0 2.817 2.817 0 0 1 5.633 0Zm7.117 3.75 2.608 6.1a3.262 3.262 0 0 1-.292 3.133 3.323 3.323 0 0 1-2.775 1.492H6.65a3.306 3.306 0 0 1-2.825-1.575 3.31 3.31 0 0 1-.142-3.233l1.442-2.875c.425-.842 1.067-1.359 1.817-1.434.75-.075 1.483.284 2.075 1.025l.183.234c.425.541.95.816 1.475.766.517-.041.992-.4 1.325-1l1.583-2.841c.592-1.067 1.367-1.625 2.167-1.584.808.042 1.517.675 1.992 1.792Z" fill-opacity=".9"/></symbol><symbol viewBox="0 0 22 20" id="favorite" xmlns="http://www.w3.org/2000/svg"><path d="M11 19.65c-.31 0-.61-.04-.86-.13C6.32 18.21.25 13.56.25 6.69.25 3.19 3.08.35 6.56.35c1.69 0 3.27.66 4.44 1.84A6.214 6.214 0 0 1 15.44.35c3.48 0 6.31 2.85 6.31 6.34 0 6.88-6.07 11.52-9.89 12.83-.25.09-.55.13-.86.13ZM6.56 1.85c-2.65 0-4.81 2.17-4.81 4.84 0 6.83 6.57 10.63 8.88 11.42.18.06.57.06.75 0 2.3-.79 8.88-4.58 8.88-11.42 0-2.67-2.16-4.84-4.81-4.84-1.52 0-2.93.71-3.84 1.94-.28.38-.92.38-1.2 0a4.77 4.77 0 0 0-3.85-1.94Z"/></symbol><symbol viewBox="0 0 24 25" id="geo" xmlns="http://www.w3.org/2000/svg"><path d="M20.621 9.308c-1.05-4.62-5.08-6.7-8.62-6.7h-.01c-3.53 0-7.57 2.07-8.62 6.69-1.17 5.16 1.99 9.53 4.85 12.28a5.436 5.436 0 0 0 3.78 1.53c1.36 0 2.72-.51 3.77-1.53 2.86-2.75 6.02-7.11 4.85-12.27Zm-8.62 5.01a3.15 3.15 0 1 1 0-6.299 3.15 3.15 0 0 1 0 6.3Z" fill-opacity=".4"/></symbol><symbol viewBox="0 0 32 33" id="info" xmlns="http://www.w3.org/2000/svg"><path fill-rule="evenodd" clip-rule="evenodd" d="M9.333 26.358A12 12 0 0 0 16 28.38a12.014 12.014 0 0 0 12-12 12 12 0 1 0-18.667 9.978Zm8.374-3.27A1 1 0 0 0 17 21.38v-5a2 2 0 0 0-2-2 1 1 0 1 0 0 2v5a2 2 0 0 0 2 2 1 1 0 0 0 .707-.293Zm-3.454-13.041a1.5 1.5 0 1 0 2.495 1.667 1.5 1.5 0 0 0-2.495-1.667Z" fill-opacity=".4"/></symbol><symbol viewBox="0 0 40 40" id="like" xmlns="http://www.w3.org/2000/svg"><path d="M20 32.867c-.413 0-.813-.054-1.146-.174-5.094-1.746-13.187-7.946-13.187-17.106 0-4.667 3.773-8.454 8.413-8.454 2.254 0 4.36.88 5.92 2.454a8.286 8.286 0 0 1 5.92-2.454c4.64 0 8.414 3.8 8.414 8.454 0 9.173-8.094 15.36-13.187 17.106-.333.12-.733.174-1.147.174ZM14.08 9.133c-3.533 0-6.413 2.894-6.413 6.454 0 9.106 8.76 14.173 11.84 15.226.24.08.76.08 1 0 3.067-1.053 11.84-6.106 11.84-15.226 0-3.56-2.88-6.454-6.413-6.454a6.335 6.335 0 0 0-5.12 2.587c-.374.507-1.227.507-1.6 0-1.24-1.653-3.107-2.587-5.134-2.587Z" fill-opacity=".4"/></symbol><symbol viewBox="0 0 40 40" id="login" xmlns="http://www.w3.org/2000/svg"><path fill-rule="evenodd" clip-rule="evenodd" d="M24.32 33.693h-.173c-5.92 0-8.773-2.333-9.267-7.56a1.002 1.002 0 0 1 .907-1.093c.547-.053 1.04.36 1.093.907.387 4.186 2.36 5.746 7.28 5.746h.174c5.426 0 7.346-1.92 7.346-7.346v-8.694c0-5.426-1.92-7.346-7.346-7.346h-.174c-4.946 0-6.92 1.586-7.28 5.853-.066.547-.52.96-1.093.907-.56-.04-.96-.534-.92-1.08.453-5.307 3.32-7.68 9.28-7.68h.173c6.547 0 9.347 2.8 9.347 9.346v8.694c0 6.546-2.8 9.346-9.347 9.346ZM22.92 21H6.667c-.547 0-1-.453-1-1 0-.547.453-1 1-1H22.92l-2.76-2.76a1.006 1.006 0 0 1 0-1.413 1.006 1.006 0 0 1 1.414 0l4.466 4.466a1.006 1.006 0 0 1 0 1.414l-4.466 4.466c-.2.2-.454.294-.707.294a.989.989 0 0 1-.707-.294 1.006 1.006 0 0 1 0-1.413L22.92 21Z" fill-opacity=".4"/></symbol><symbol viewBox="0 0 24 25" id="map" xmlns="http://www.w3.org/2000/svg"><path fill-rule="evenodd" clip-rule="evenodd" d="M8.358 5.68c.15-.082.309.044.309.214v11.277c0 .198-.136.364-.309.459L6.4 18.747c-1.367.783-2.492.133-2.492-1.45V9.188c0-.525.375-1.175.842-1.442L8.358 5.68Zm5.864 2.087a.5.5 0 0 1 .278.448v10.777a.5.5 0 0 1-.717.45l-3.375-1.626a.5.5 0 0 1-.283-.45V6.544a.5.5 0 0 1 .722-.448l3.375 1.671Zm6.111 8.454V8.113c0-1.583-1.125-2.233-2.491-1.45l-1.632.931a.5.5 0 0 0-.252.434v10.797a.5.5 0 0 0 .749.434l2.784-1.596c.467-.267.842-.916.842-1.442Z" fill-opacity=".9"/></symbol><symbol viewBox="0 0 24 25" id="phone" xmlns="http://www.w3.org/2000/svg"><path fill-rule="evenodd" clip-rule="evenodd" d="m9.201 17.658 1.85-1.85c.4-.4.39-1.04-.01-1.43a8.92 8.92 0 0 0-.155-.15c-.052-.05-.105-.1-.155-.15-.52-.53-1-1.06-1.45-1.58-.44-.52-.75-.95-.93-1.28a1.375 1.375 0 0 0-.04-.1 2.465 2.465 0 0 1-.04-.1.908.908 0 0 1-.03-.23c0-.16.05-.29.16-.4l.76-.79c.24-.24.43-.48.56-.71.14-.23.21-.47.21-.71 0-.19-.05-.4-.14-.61-.09-.22-.22-.45-.4-.7l-2.32-3.27a1.63 1.63 0 0 0-.67-.56 1.88 1.88 0 0 0-.81-.18c-.74 0-1.44.31-2.08.94-.53.5-.91 1.06-1.15 1.67-.24.6-.36 1.25-.36 1.93 0 1.04.24 2.13.71 3.27.48 1.13 1.14 2.27 1.96 3.41.83 1.14 1.76 2.23 2.79 3.27.055.055.11.108.165.16.055.053.11.105.165.16.4.38 1.02.38 1.41-.01Zm12.62 2.38c.1-.28.15-.57.15-.85s-.06-.53-.16-.78c-.11-.25-.29-.46-.55-.64l-3.31-2.35c-.25-.17-.48-.3-.7-.39-.22-.09-.42-.13-.61-.13-.25 0-.48.07-.71.21-.23.12-.47.31-.72.56l-.76.75a.55.55 0 0 1-.41.17.69.69 0 0 1-.25-.04l-.09-.04a2.142 2.142 0 0 0-.09-.04c-.21-.11-.46-.27-.74-.48l-3.27 3.27c.37.31.76.6 1.15.89 1.14.83 2.29 1.49 3.44 1.98s2.24.73 3.26.73c.69 0 1.33-.13 1.92-.37.005 0 .01-.003.015-.005a.036.036 0 0 1 .015-.005c.61-.25 1.15-.64 1.64-1.18.29-.32.51-.66.68-1.02.04-.08.07-.16.1-.24Z" fill-opacity=".4"/></symbol><symbol viewBox="0 0 40 40" id="vk" xmlns="http://www.w3.org/2000/svg"><rect x="4" y="4" width="32" height="32" rx="16" fill-opacity=".4"/><path d="M20.786 25.6c-6.013 0-9.443-4.204-9.586-11.2h3.012c.1 5.135 2.32 7.31 4.079 7.758V14.4h2.836v4.428c1.737-.19 3.562-2.208 4.177-4.428h2.837a8.631 8.631 0 0 1-1.359 3.202 8.446 8.446 0 0 1-2.5 2.381 8.716 8.716 0 0 1 2.85 2.314A8.92 8.92 0 0 1 28.8 25.6h-3.122a5.553 5.553 0 0 0-1.683-2.702 5.38 5.38 0 0 0-2.868-1.3V25.6h-.34Z"/></symbol><symbol viewBox="0 0 40 40" id="whatsapp" xmlns="http://www.w3.org/2000/svg"><rect x="4" y="4" width="32" height="32" rx="16" fill-opacity=".4"/><path d="M26.341 13.65a8.343 8.343 0 0 0-5.912-2.45c-4.624 0-8.37 3.733-8.37 8.342 0 1.458.41 2.916 1.112 4.141L12 28l4.449-1.167a8.558 8.558 0 0 0 3.98.992c4.625 0 8.371-3.733 8.371-8.342-.059-2.158-.878-4.258-2.459-5.833Zm-1.873 8.867c-.175.466-.995.933-1.405.991-.35.059-.82.059-1.287-.058-.293-.117-.703-.233-1.171-.467-2.107-.875-3.454-2.975-3.57-3.15-.118-.116-.879-1.108-.879-2.158 0-1.05.527-1.517.703-1.75.175-.233.41-.233.585-.233h.41c.117 0 .292-.059.468.35.176.408.585 1.458.644 1.516a.37.37 0 0 1 0 .35c-.059.117-.117.234-.234.35-.117.117-.234.292-.293.35-.117.117-.234.234-.117.409.117.233.527.875 1.17 1.458.82.7 1.464.933 1.698 1.05.234.117.351.058.468-.058.118-.117.527-.584.644-.817.117-.233.293-.175.469-.117.175.059 1.229.584 1.405.7.234.117.35.175.41.234.058.175.058.583-.118 1.05Z"/></symbol></svg>